<mxfile host="app.diagrams.net" modified="2021-12-16T15:52:32.724Z" agent="5.0 (X11)" etag="DsKHbLoPOFTMfWfPedbh" version="15.9.6" type="github">
  <diagram id="ndT-znX1_1I9x5nljmBv" name="Page-1">
    <mxGraphModel dx="1422" dy="730" grid="1" gridSize="10" guides="1" tooltips="1" connect="1" arrows="1" fold="1" page="1" pageScale="1" pageWidth="827" pageHeight="1169" math="0" shadow="0">
      <root>
        <mxCell id="0" />
        <mxCell id="1" parent="0" />
        <mxCell id="drOMGNEiGwaOuBoNa-Xe-1" value="&lt;div&gt;MASTER&lt;/div&gt;" style="rounded=0;whiteSpace=wrap;html=1;" vertex="1" parent="1">
          <mxGeometry x="44" y="40" width="120" height="60" as="geometry" />
        </mxCell>
        <mxCell id="drOMGNEiGwaOuBoNa-Xe-3" value="" style="endArrow=classic;html=1;rounded=0;exitX=0.5;exitY=1;exitDx=0;exitDy=0;" edge="1" parent="1" source="drOMGNEiGwaOuBoNa-Xe-1">
          <mxGeometry width="50" height="50" relative="1" as="geometry">
            <mxPoint x="80" y="400" as="sourcePoint" />
            <mxPoint x="104" y="130" as="targetPoint" />
          </mxGeometry>
        </mxCell>
        <mxCell id="drOMGNEiGwaOuBoNa-Xe-4" value="-Leggere parametri da TXT&#xa;-inizializiamo memoria condivisa libro mastro&#xa;-Inizializiamo SO_NODES_NUM code di messaggi e salviamo l&#39;ID in un ARRAY &#xa;  in memoria condivisa&#xa;-Inizializiamo un ARRAY in memoria condivisa dove ciascun utente salverà il proprio PID&#xa;  in posizione del proprio indice (indice = ordine di creazione), quando il processo morirà&#xa;  scriverà nella sua i-esima posizione al posto del proprio PID, -1.&#xa;&#xa;-iniziamo le fork(), prima i NODI e dopo gli UTENTI&#xa;" style="text;strokeColor=none;fillColor=none;align=left;verticalAlign=top;spacingLeft=4;spacingRight=4;overflow=hidden;points=[[0,0.5],[1,0.5]];portConstraint=eastwest;rotatable=0;fontSize=18;" vertex="1" parent="1">
          <mxGeometry x="64" y="130" width="746" height="560" as="geometry" />
        </mxCell>
      </root>
    </mxGraphModel>
  </diagram>
</mxfile>
